HIERARCHY
ROOT SpineBase
{
  OFFSET 0.000000 0.000000 0.000000
  CHANNELS 6 Xposition Yposition Zposition Zrotation Xrotation Yrotation
  JOINT SpineMid
  {
    OFFSET 0.000000 30.884350 0.000000
    CHANNELS 3 Zrotation Xrotation Yrotation
    JOINT SpineShoulder
    {
      OFFSET 0.072247 22.778548 -1.063155
      CHANNELS 3 Zrotation Xrotation Yrotation
      JOINT Neck
      {
        OFFSET -0.044857 7.475234 -0.579282
        CHANNELS 3 Zrotation Xrotation Yrotation
        JOINT Head
        {
          OFFSET 2.847044 10.717420 5.284152
          CHANNELS 3 Zrotation Xrotation Yrotation
          End Site
          {
            OFFSET 0 0 0
          }
        }
      }
      JOINT ShoulderLeft
      {
        OFFSET -3.748648 -4.312989 -8.428518
        CHANNELS 3 Zrotation Xrotation Yrotation
        JOINT ElbowLeft
        {
          OFFSET -11.090345 -21.100981 -8.441713
          CHANNELS 3 Zrotation Xrotation Yrotation
          JOINT WristLeft
          {
            OFFSET -0.611892 -20.808581 2.432405
            CHANNELS 3 Zrotation Xrotation Yrotation
            JOINT HandLeft
            {
              OFFSET -0.252102 -4.229973 -0.667392
              CHANNELS 3 Zrotation Xrotation Yrotation
              JOINT HandTipLeft
              {
                OFFSET -2.643042 -6.546484 1.284452
                CHANNELS 3 Zrotation Xrotation Yrotation
                End Site
                {
                  OFFSET 0 0 0
                }
              }
              JOINT ThumbLeft
              {
                OFFSET -1.873737 -0.784554 -3.891195
                CHANNELS 3 Zrotation Xrotation Yrotation
                End Site
                {
                  OFFSET 0 0 0
                }
              }
            }
          }
        }
      }
      JOINT ShoulderRight
      {
        OFFSET 11.660581 -14.756999 6.969447
        CHANNELS 3 Zrotation Xrotation Yrotation
        JOINT ElbowRight
        {
          OFFSET -21.654410 -3.274956 -20.189190
          CHANNELS 3 Zrotation Xrotation Yrotation
          JOINT WristRight
          {
            OFFSET -13.638228 -17.171511 -8.560322
            CHANNELS 3 Zrotation Xrotation Yrotation
            JOINT HandRight
            {
              OFFSET 6.301741 -2.960517 3.650905
              CHANNELS 3 Zrotation Xrotation Yrotation
              JOINT HandTipRight
              {
                OFFSET 0.136749 -7.025708 -0.869636
                CHANNELS 3 Zrotation Xrotation Yrotation
                End Site
                {
                  OFFSET 0 0 0
                }
              }
              JOINT ThumbRight
              {
                OFFSET -0.320335 -3.701492 -2.054791
                CHANNELS 3 Zrotation Xrotation Yrotation
                End Site
                {
                  OFFSET 0 0 0
                }
              }
            }
          }
        }
      }
    }
  }
  JOINT HipLeft
  {
    OFFSET -4.597073 2.779931 -6.367860
    CHANNELS 3 Zrotation Xrotation Yrotation
    JOINT KneeLeft
    {
      OFFSET 1.161752 -29.023892 2.938631
      CHANNELS 3 Zrotation Xrotation Yrotation
      JOINT AnkleLeft
      {
        OFFSET -10.380187 -33.717104 1.644775
        CHANNELS 3 Zrotation Xrotation Yrotation
        JOINT FootLeft
        {
          OFFSET 6.897768 -3.464331 -9.100037
          CHANNELS 3 Zrotation Xrotation Yrotation
          End Site
          {
            OFFSET 0 0 0
          }
        }
      }
    }
  }
  JOINT HipRight
  {
    OFFSET 5.118844 -0.456826 -0.339689
    CHANNELS 3 Zrotation Xrotation Yrotation
    JOINT KneeRight
    {
      OFFSET -14.625308 -27.248166 9.743966
      CHANNELS 3 Zrotation Xrotation Yrotation
      JOINT AnkleRight
      {
        OFFSET -7.609582 -29.867951 -6.733533
        CHANNELS 3 Zrotation Xrotation Yrotation
        JOINT FootRight
        {
          OFFSET 5.404680 -4.703984 -6.979993
          CHANNELS 3 Zrotation Xrotation Yrotation
          End Site
          {
            OFFSET 0 0 0
          }
        }
      }
    }
  }
}
MOTION
Frames: 5
Frame Time: 0.033333
-13.558278 63.805754 244.745240 -0.000000 0.000000 -31.817236 0.000000 0.000000 31.817236 -0.000000 0.000000 0.000000 -0.000000 0.000000 0.000000 0.000000 0.000000 0.000000 -0.000000 0.000000 0.000000 -0.000000 0.000000 0.000000 -0.000000 0.000000 0.000000 -0.000000 0.000000 0.000000 0.000000 0.000000 0.000000 0.000000 0.000000 0.000000 -0.000000 0.000000 0.000000 -0.000000 0.000000 0.000000 -0.000000 0.000000 0.000000 -0.000000 0.000000 0.000000 0.000000 0.000000 0.000000 0.000000 0.000000 0.000000 0.000000 0.000000 31.817236 -0.000000 0.000000 0.000000 -0.000000 0.000000 0.000000 0.000000 0.000000 0.000000 0.000000 0.000000 31.817236 -0.000000 0.000000 0.000000 -0.000000 0.000000 0.000000 0.000000 0.000000 0.000000
-13.454559 63.918753 244.803642 0.204489 -0.095566 -32.120836 -0.224001 -0.027790 32.120952 -0.000000 0.000000 0.000000 -0.000000 0.000000 0.000000 0.000000 0.000000 0.000000 0.980575 -0.047788 -0.368493 5.451760 1.633475 0.985425 -2.644827 -10.403056 -0.483019 4.641904 9.916322 0.252343 0.000000 0.000000 0.000000 0.000000 0.000000 0.000000 -0.000000 0.000000 0.000000 10.144244 -3.742273 -1.932290 -11.610412 3.481750 1.414191 4.060128 -1.298732 0.908006 0.000000 0.000000 0.000000 0.000000 0.000000 0.000000 -0.224001 -0.027790 32.120952 -0.000000 0.000000 0.000000 -0.000000 0.000000 0.000000 0.000000 0.000000 0.000000 -0.224001 -0.027790 32.120952 0.218852 0.935837 -0.289166 -1.509863 -3.003193 -0.208276 0.000000 0.000000 0.000000
-13.390455 64.015153 244.885950 0.356190 -0.206441 -32.211137 -0.411409 -0.015199 32.211724 -0.000000 0.000000 0.000000 0.222635 1.100919 -0.402671 0.000000 0.000000 0.000000 1.973863 0.007403 -0.800984 10.127243 2.748544 1.866073 -5.329201 -19.647436 -0.368281 9.896256 18.741376 -1.583686 0.000000 0.000000 0.000000 0.000000 0.000000 0.000000 -0.000000 0.000000 0.000000 20.835855 -8.141601 -3.085891 -24.691630 6.277405 2.152910 8.829022 -1.488529 3.381275 0.000000 0.000000 0.000000 0.000000 0.000000 0.000000 -0.411409 -0.015199 32.211724 -0.000000 0.000000 0.000000 -0.000000 0.000000 0.000000 0.000000 0.000000 0.000000 -0.411409 -0.015199 32.211724 0.373590 1.479222 -0.464965 -2.662143 -4.826050 -0.079013 0.000000 0.000000 0.000000
-13.365964 64.094953 244.992164 0.454925 -0.332526 -32.087479 -0.562071 0.040059 32.088996 -0.000000 0.000000 0.000000 0.366620 1.521352 -0.586447 0.000000 0.000000 0.000000 2.970806 0.169699 -1.299249 13.964844 3.298024 2.754037 -7.963643 -27.397463 0.101242 15.702667 25.840837 -5.069275 0.000000 0.000000 0.000000 0.000000 0.000000 0.000000 0.420227 -0.199463 -1.317002 31.372553 -11.945534 -2.159452 -38.657287 7.958657 1.710315 14.167855 0.064700 7.534297 0.000000 0.000000 0.000000 0.000000 0.000000 0.000000 -1.306529 0.452357 32.080316 0.411850 -0.744704 0.014555 -0.000000 0.000000 0.000000 0.000000 0.000000 0.000000 -0.562071 0.040059 32.088996 0.461422 1.633912 -0.525757 -3.386751 -5.357640 0.494125 0.000000 0.000000 0.000000
-13.381088 64.158152 245.122283 0.500618 -0.473700 -31.747445 -0.674962 0.139393 31.750335 -0.348599 -0.842168 -0.034611 0.879015 2.697070 -0.736526 0.000000 0.000000 0.000000 4.310684 1.283558 -1.892412 16.979286 3.267247 3.741038 -10.526268 -33.575533 0.715231 21.745722 31.035881 -9.519521 0.000000 0.000000 0.000000 0.000000 0.000000 0.000000 0.807940 0.736416 -2.179730 41.916549 -15.727944 -0.599373 -52.759820 8.399150 -0.376220 19.507902 3.919005 13.149798 0.000000 0.000000 0.000000 0.000000 0.000000 0.000000 -1.584913 0.824206 31.758615 0.413364 -1.061160 0.003201 -0.000000 0.000000 0.000000 0.000000 0.000000 0.000000 -0.967722 0.824898 31.396206 0.365545 0.666675 -0.108620 -3.654177 -4.553924 1.541144 0.000000 0.000000 0.000000
